<mxfile host="Electron" agent="Mozilla/5.0 (Windows NT 10.0; Win64; x64) AppleWebKit/537.36 (KHTML, like Gecko) draw.io/26.0.16 Chrome/132.0.6834.196 Electron/34.2.0 Safari/537.36" version="26.0.16">
  <diagram name="Page-1" id="kHRClioxKVlIbmPhPkYK">
    <mxGraphModel dx="2284" dy="1102" grid="1" gridSize="10" guides="1" tooltips="1" connect="1" arrows="1" fold="1" page="0" pageScale="1" pageWidth="850" pageHeight="1100" math="0" shadow="0">
      <root>
        <mxCell id="0" />
        <mxCell id="1" parent="0" />
        <mxCell id="JGcvrV7qLeHRXBosnskG-1" value="&lt;b&gt;&lt;font style=&quot;font-size: 20px;&quot;&gt;Integration Model &lt;/font&gt;&lt;/b&gt;(how to tables are related )" style="text;html=1;align=center;verticalAlign=middle;whiteSpace=wrap;rounded=0;" vertex="1" parent="1">
          <mxGeometry x="-240" width="360" height="30" as="geometry" />
        </mxCell>
        <mxCell id="JGcvrV7qLeHRXBosnskG-2" value="crm_cust_info" style="swimlane;fontStyle=0;childLayout=stackLayout;horizontal=1;startSize=30;horizontalStack=0;resizeParent=1;resizeParentMax=0;resizeLast=0;collapsible=1;marginBottom=0;whiteSpace=wrap;html=1;rounded=1;swimlaneLine=1;fillColor=#dae8fc;strokeColor=#6c8ebf;" vertex="1" parent="1">
          <mxGeometry x="205" y="240" width="180" height="60" as="geometry" />
        </mxCell>
        <mxCell id="JGcvrV7qLeHRXBosnskG-3" value="cst_id" style="text;strokeColor=none;fillColor=none;align=left;verticalAlign=middle;spacingLeft=4;spacingRight=4;overflow=hidden;points=[[0,0.5],[1,0.5]];portConstraint=eastwest;rotatable=0;whiteSpace=wrap;html=1;" vertex="1" parent="JGcvrV7qLeHRXBosnskG-2">
          <mxGeometry y="30" width="180" height="30" as="geometry" />
        </mxCell>
        <mxCell id="JGcvrV7qLeHRXBosnskG-6" value="Cstomer Infromation" style="text;html=1;align=center;verticalAlign=middle;whiteSpace=wrap;rounded=0;" vertex="1" parent="1">
          <mxGeometry x="210" y="209" width="170" height="30" as="geometry" />
        </mxCell>
        <mxCell id="JGcvrV7qLeHRXBosnskG-11" value="crm_prd_info" style="swimlane;fontStyle=0;childLayout=stackLayout;horizontal=1;startSize=30;horizontalStack=0;resizeParent=1;resizeParentMax=0;resizeLast=0;collapsible=1;marginBottom=0;whiteSpace=wrap;html=1;rounded=1;swimlaneLine=1;fillColor=#dae8fc;strokeColor=#6c8ebf;" vertex="1" parent="1">
          <mxGeometry x="210" y="380" width="180" height="90" as="geometry" />
        </mxCell>
        <mxCell id="JGcvrV7qLeHRXBosnskG-12" value="prd_id" style="text;strokeColor=none;fillColor=none;align=left;verticalAlign=middle;spacingLeft=4;spacingRight=4;overflow=hidden;points=[[0,0.5],[1,0.5]];portConstraint=eastwest;rotatable=0;whiteSpace=wrap;html=1;" vertex="1" parent="JGcvrV7qLeHRXBosnskG-11">
          <mxGeometry y="30" width="180" height="30" as="geometry" />
        </mxCell>
        <mxCell id="JGcvrV7qLeHRXBosnskG-28" value="cst_key" style="text;strokeColor=none;fillColor=none;align=left;verticalAlign=middle;spacingLeft=4;spacingRight=4;overflow=hidden;points=[[0,0.5],[1,0.5]];portConstraint=eastwest;rotatable=0;whiteSpace=wrap;html=1;" vertex="1" parent="JGcvrV7qLeHRXBosnskG-11">
          <mxGeometry y="60" width="180" height="30" as="geometry" />
        </mxCell>
        <mxCell id="JGcvrV7qLeHRXBosnskG-13" value="Current &amp;amp; History Product Information" style="text;html=1;align=center;verticalAlign=middle;whiteSpace=wrap;rounded=0;" vertex="1" parent="1">
          <mxGeometry x="195" y="350" width="210" height="30" as="geometry" />
        </mxCell>
        <mxCell id="JGcvrV7qLeHRXBosnskG-14" value="crm_sales_details" style="swimlane;fontStyle=0;childLayout=stackLayout;horizontal=1;startSize=30;horizontalStack=0;resizeParent=1;resizeParentMax=0;resizeLast=0;collapsible=1;marginBottom=0;whiteSpace=wrap;html=1;rounded=1;swimlaneLine=1;fillColor=#dae8fc;strokeColor=#6c8ebf;" vertex="1" parent="1">
          <mxGeometry x="-120" y="280" width="180" height="90" as="geometry" />
        </mxCell>
        <mxCell id="JGcvrV7qLeHRXBosnskG-18" value="prd_key" style="text;strokeColor=none;fillColor=none;align=left;verticalAlign=middle;spacingLeft=4;spacingRight=4;overflow=hidden;points=[[0,0.5],[1,0.5]];portConstraint=eastwest;rotatable=0;whiteSpace=wrap;html=1;" vertex="1" parent="JGcvrV7qLeHRXBosnskG-14">
          <mxGeometry y="30" width="180" height="30" as="geometry" />
        </mxCell>
        <mxCell id="JGcvrV7qLeHRXBosnskG-15" value="cst_id" style="text;strokeColor=none;fillColor=none;align=left;verticalAlign=middle;spacingLeft=4;spacingRight=4;overflow=hidden;points=[[0,0.5],[1,0.5]];portConstraint=eastwest;rotatable=0;whiteSpace=wrap;html=1;" vertex="1" parent="JGcvrV7qLeHRXBosnskG-14">
          <mxGeometry y="60" width="180" height="30" as="geometry" />
        </mxCell>
        <mxCell id="JGcvrV7qLeHRXBosnskG-16" value="Transactional Records about Sales &amp;amp; Orders" style="text;html=1;align=center;verticalAlign=middle;whiteSpace=wrap;rounded=0;" vertex="1" parent="1">
          <mxGeometry x="-120" y="250" width="170" height="30" as="geometry" />
        </mxCell>
        <mxCell id="JGcvrV7qLeHRXBosnskG-22" style="edgeStyle=orthogonalEdgeStyle;rounded=0;orthogonalLoop=1;jettySize=auto;html=1;entryX=0;entryY=0.5;entryDx=0;entryDy=0;" edge="1" parent="1" source="JGcvrV7qLeHRXBosnskG-18" target="JGcvrV7qLeHRXBosnskG-3">
          <mxGeometry relative="1" as="geometry" />
        </mxCell>
        <mxCell id="JGcvrV7qLeHRXBosnskG-23" style="edgeStyle=orthogonalEdgeStyle;rounded=0;orthogonalLoop=1;jettySize=auto;html=1;entryX=0;entryY=0.5;entryDx=0;entryDy=0;" edge="1" parent="1" source="JGcvrV7qLeHRXBosnskG-15" target="JGcvrV7qLeHRXBosnskG-12">
          <mxGeometry relative="1" as="geometry" />
        </mxCell>
        <mxCell id="JGcvrV7qLeHRXBosnskG-24" value="erp_cust_az12" style="swimlane;fontStyle=0;childLayout=stackLayout;horizontal=1;startSize=30;horizontalStack=0;resizeParent=1;resizeParentMax=0;resizeLast=0;collapsible=1;marginBottom=0;whiteSpace=wrap;html=1;rounded=1;swimlaneLine=1;fillColor=#fff2cc;strokeColor=#d6b656;" vertex="1" parent="1">
          <mxGeometry x="715" y="159" width="180" height="60" as="geometry" />
        </mxCell>
        <mxCell id="JGcvrV7qLeHRXBosnskG-25" value="cid" style="text;strokeColor=none;fillColor=none;align=left;verticalAlign=middle;spacingLeft=4;spacingRight=4;overflow=hidden;points=[[0,0.5],[1,0.5]];portConstraint=eastwest;rotatable=0;whiteSpace=wrap;html=1;" vertex="1" parent="JGcvrV7qLeHRXBosnskG-24">
          <mxGeometry y="30" width="180" height="30" as="geometry" />
        </mxCell>
        <mxCell id="JGcvrV7qLeHRXBosnskG-29" style="edgeStyle=orthogonalEdgeStyle;rounded=0;orthogonalLoop=1;jettySize=auto;html=1;entryX=1;entryY=0.5;entryDx=0;entryDy=0;" edge="1" parent="1" source="JGcvrV7qLeHRXBosnskG-25" target="JGcvrV7qLeHRXBosnskG-3">
          <mxGeometry relative="1" as="geometry">
            <Array as="points">
              <mxPoint x="550" y="200" />
              <mxPoint x="550" y="285" />
            </Array>
          </mxGeometry>
        </mxCell>
        <mxCell id="JGcvrV7qLeHRXBosnskG-30" value="Extra Customer Information(Birthdate)" style="text;html=1;align=center;verticalAlign=middle;whiteSpace=wrap;rounded=0;" vertex="1" parent="1">
          <mxGeometry x="700" y="129" width="210" height="30" as="geometry" />
        </mxCell>
        <mxCell id="JGcvrV7qLeHRXBosnskG-31" value="erp_loc_a101" style="swimlane;fontStyle=0;childLayout=stackLayout;horizontal=1;startSize=30;horizontalStack=0;resizeParent=1;resizeParentMax=0;resizeLast=0;collapsible=1;marginBottom=0;whiteSpace=wrap;html=1;rounded=1;swimlaneLine=1;fillColor=#fff2cc;strokeColor=#d6b656;" vertex="1" parent="1">
          <mxGeometry x="715" y="255.5" width="180" height="60" as="geometry" />
        </mxCell>
        <mxCell id="JGcvrV7qLeHRXBosnskG-32" value="cid" style="text;strokeColor=none;fillColor=none;align=left;verticalAlign=middle;spacingLeft=4;spacingRight=4;overflow=hidden;points=[[0,0.5],[1,0.5]];portConstraint=eastwest;rotatable=0;whiteSpace=wrap;html=1;" vertex="1" parent="JGcvrV7qLeHRXBosnskG-31">
          <mxGeometry y="30" width="180" height="30" as="geometry" />
        </mxCell>
        <mxCell id="JGcvrV7qLeHRXBosnskG-33" value="Location of Customers(Country)" style="text;html=1;align=center;verticalAlign=middle;whiteSpace=wrap;rounded=0;" vertex="1" parent="1">
          <mxGeometry x="700" y="224.5" width="210" height="30" as="geometry" />
        </mxCell>
        <mxCell id="JGcvrV7qLeHRXBosnskG-35" value="erp_px_cat_g1v2" style="swimlane;fontStyle=0;childLayout=stackLayout;horizontal=1;startSize=30;horizontalStack=0;resizeParent=1;resizeParentMax=0;resizeLast=0;collapsible=1;marginBottom=0;whiteSpace=wrap;html=1;rounded=1;swimlaneLine=1;fillColor=#fff2cc;strokeColor=#d6b656;" vertex="1" parent="1">
          <mxGeometry x="715" y="410" width="180" height="60" as="geometry" />
        </mxCell>
        <mxCell id="JGcvrV7qLeHRXBosnskG-36" value="id" style="text;strokeColor=none;fillColor=none;align=left;verticalAlign=middle;spacingLeft=4;spacingRight=4;overflow=hidden;points=[[0,0.5],[1,0.5]];portConstraint=eastwest;rotatable=0;whiteSpace=wrap;html=1;" vertex="1" parent="JGcvrV7qLeHRXBosnskG-35">
          <mxGeometry y="30" width="180" height="30" as="geometry" />
        </mxCell>
        <mxCell id="JGcvrV7qLeHRXBosnskG-37" value="Extra Customer Information(Birthdate)" style="text;html=1;align=center;verticalAlign=middle;whiteSpace=wrap;rounded=0;" vertex="1" parent="1">
          <mxGeometry x="700" y="380" width="210" height="30" as="geometry" />
        </mxCell>
        <mxCell id="JGcvrV7qLeHRXBosnskG-38" style="edgeStyle=orthogonalEdgeStyle;rounded=0;orthogonalLoop=1;jettySize=auto;html=1;entryX=1;entryY=0.5;entryDx=0;entryDy=0;" edge="1" parent="1" source="JGcvrV7qLeHRXBosnskG-36">
          <mxGeometry relative="1" as="geometry">
            <mxPoint x="390" y="455" as="targetPoint" />
          </mxGeometry>
        </mxCell>
        <mxCell id="JGcvrV7qLeHRXBosnskG-40" value="" style="rounded=1;whiteSpace=wrap;html=1;fillColor=none;dashed=1;" vertex="1" parent="1">
          <mxGeometry x="-140" y="100" width="600" height="400" as="geometry" />
        </mxCell>
        <mxCell id="JGcvrV7qLeHRXBosnskG-41" value="&lt;font style=&quot;font-size: 40px;&quot;&gt;&lt;b&gt;CRM&lt;/b&gt;&lt;/font&gt;" style="rounded=1;whiteSpace=wrap;html=1;fillColor=#dae8fc;strokeColor=#6c8ebf;" vertex="1" parent="1">
          <mxGeometry x="40" y="80" width="270" height="40" as="geometry" />
        </mxCell>
        <mxCell id="JGcvrV7qLeHRXBosnskG-42" style="edgeStyle=orthogonalEdgeStyle;rounded=0;orthogonalLoop=1;jettySize=auto;html=1;entryX=1;entryY=0.5;entryDx=0;entryDy=0;" edge="1" parent="1" source="JGcvrV7qLeHRXBosnskG-32" target="JGcvrV7qLeHRXBosnskG-3">
          <mxGeometry relative="1" as="geometry">
            <Array as="points">
              <mxPoint x="550" y="304" />
              <mxPoint x="550" y="285" />
            </Array>
          </mxGeometry>
        </mxCell>
        <mxCell id="JGcvrV7qLeHRXBosnskG-43" value="" style="rounded=1;whiteSpace=wrap;html=1;fillColor=none;dashed=1;" vertex="1" parent="1">
          <mxGeometry x="510" y="100" width="600" height="400" as="geometry" />
        </mxCell>
        <mxCell id="JGcvrV7qLeHRXBosnskG-45" value="&lt;font style=&quot;font-size: 40px;&quot;&gt;&lt;b&gt;ERP&lt;/b&gt;&lt;/font&gt;" style="rounded=1;whiteSpace=wrap;html=1;fillColor=#fff2cc;strokeColor=#d6b656;" vertex="1" parent="1">
          <mxGeometry x="680" y="70" width="270" height="40" as="geometry" />
        </mxCell>
      </root>
    </mxGraphModel>
  </diagram>
</mxfile>
